# xmcd CD Database Entry
#
# Track frame offsets:
# 150
# 16581
# 35326
# 53959
# 66656
# 98023
# 108535
# 123429
# 138594
# 150129
#
# Disc length: 2276 seconds
#
# Revision: 1
# Processed by: cddbd v1.4PL0 Copyright (c) Steve Scherf et al.
# Submitted via: tcd 2.0b
#
DISCID=7d08e20a
DTITLE=Bjørn Afzelius/Tusin Biter
DYEAR=1900
DGENRE=
TTITLE0=Spor 1
TTITLE1=Spor 2
TTITLE2=Spor 3
TTITLE3=Spor 4
TTITLE4=Spor 5
TTITLE5=Spor 6
TTITLE6=Spor 7
TTITLE7=Spor 8
TTITLE8=Spor 9
TTITLE9=Spor 10
EXTD=
EXTT0=
EXTT1=
EXTT2=
EXTT3=
EXTT4=
EXTT5=
EXTT6=
EXTT7=
EXTT8=
EXTT9=
PLAYORDER=
